<svg stroke-miterlimit="10" style="fill-rule:nonzero;clip-rule:evenodd;stroke-linecap:round;stroke-linejoin:round" viewBox="0 0 15 12" xml:space="preserve" xmlns="http://www.w3.org/2000/svg" ><clipPath id="a"><path d="M0 0h15v12H0z"/></clipPath><g clip-path="url(#a)"  fill="#999" fill-rule="evenodd"><path d="M13.169.488H1.834C.822.488 0 1.308 0 2.318v7.728c0 1.009.822 1.83 1.834 1.83h11.332c1.011 0 1.834-.821 1.834-1.83V2.32A1.832 1.832 0 0 0 13.169.488zm.996 9.558a.996.996 0 0 1-.996.994H1.834a.996.996 0 0 1-.996-.994V2.32c0-.548.447-.994.996-.994h11.332c.55 0 .996.446.996.994v7.725h.003z"/><path d="m9.46 6.086 3.669-3.282a.42.42 0 0 0-.562-.622l-5.06 4.53-.986-.88c-.003-.003-.006-.006-.006-.01a.62.62 0 0 0-.069-.058L2.43 2.179a.42.42 0 1 0-.558.625l3.712 3.31-3.697 3.452a.419.419 0 0 0 .574.613l3.753-3.502 1.018.907a.42.42 0 0 0 .558-.003l1.046-.935 3.73 3.536a.419.419 0 1 0 .577-.607l-3.683-3.49z"/></g></svg>