<svg stroke-miterlimit="10" style="fill-rule:nonzero;clip-rule:evenodd;stroke-linecap:round;stroke-linejoin:round" viewBox="0 0 15 16" xml:space="preserve" xmlns="http://www.w3.org/2000/svg" xmlns:vectornator="http://vectornator.io"><clipPath id="a"><path d="M0 0h15v16H0z"/></clipPath><g clip-path="url(#a)" vectornator:layerName="Untitled"><clipPath id="b"><path d="M-.011.49h15v14.963h-15V.489z" fill-rule="evenodd"/></clipPath><g clip-path="url(#b)" fill="#999" fill-rule="evenodd"><path d="M7.478.49c-3.031 0-5.497 2.46-5.497 5.483 0 1.39.877 3.352 2.608 5.834a39.151 39.151 0 0 0 2.561 3.277l.328.369.328-.369a39.212 39.212 0 0 0 2.562-3.277c1.73-2.482 2.608-4.445 2.608-5.834C12.976 2.95 10.51.49 7.478.49zM9.653 11.3a39.747 39.747 0 0 1-2.175 2.822 39.708 39.708 0 0 1-2.17-2.815c-1.603-2.3-2.45-4.144-2.45-5.334 0-2.541 2.073-4.609 4.62-4.609 2.548 0 4.62 2.068 4.62 4.61 0 1.188-.845 3.03-2.445 5.326z"/><path d="M7.477 2.516a3.244 3.244 0 0 0-3.244 3.237 3.244 3.244 0 0 0 6.49 0 3.244 3.244 0 0 0-3.246-3.237zm0 5.599A2.367 2.367 0 0 1 5.11 5.753a2.367 2.367 0 0 1 4.735 0 2.367 2.367 0 0 1-2.368 2.362z"/></g></g></svg>