<svg stroke-miterlimit="10" style="fill-rule:nonzero;clip-rule:evenodd;stroke-linecap:round;stroke-linejoin:round" viewBox="0 0 15 16" xml:space="preserve" xmlns="http://www.w3.org/2000/svg" xmlns:vectornator="http://vectornator.io"><g vectornator:layerName="Untitled" fill="#999" fill-rule="evenodd"><path d="m14.606 12.137-3.036-2.02a.888.888 0 0 0-1.186.192l-.885 1.135a.379.379 0 0 1-.484.101l-.169-.092c-.557-.303-1.251-.68-2.65-2.076C4.8 7.982 4.42 7.289 4.117 6.734l-.093-.168a.377.377 0 0 1 .1-.485l1.137-.882a.883.883 0 0 0 .193-1.184L3.428.986A.883.883 0 0 0 2.24.72l-1.27.76a1.787 1.787 0 0 0-.816 1.058c-.458 1.661-.114 4.53 4.121 8.754 3.369 3.36 5.877 4.264 7.6 4.264.397.002.792-.05 1.175-.153a1.788 1.788 0 0 0 1.06-.814l.764-1.266a.878.878 0 0 0-.268-1.186zm-.163.93-.762 1.267a1.292 1.292 0 0 1-.762.589c-1.538.421-4.224.072-8.29-3.983C.563 6.884.214 4.204.636 2.67c.091-.321.303-.594.591-.762l1.27-.76a.383.383 0 0 1 .516.116l1.1 1.647.923 1.381c.11.167.074.39-.084.514l-1.136.882a.871.871 0 0 0-.232 1.12l.09.164c.32.584.717 1.311 2.167 2.758 1.45 1.446 2.178 1.842 2.764 2.16l.164.091a.876.876 0 0 0 1.123-.231l.884-1.134a.386.386 0 0 1 .515-.083l3.036 2.02a.38.38 0 0 1 .116.514zM8.5 3.089a4.249 4.249 0 0 1 4.25 4.239.25.25 0 0 0 .5 0A4.749 4.749 0 0 0 8.5 2.59a.25.25 0 1 0 0 .499z"/><path d="M8.5 4.585a2.75 2.75 0 0 1 2.75 2.743.25.25 0 0 0 .5 0A3.25 3.25 0 0 0 8.5 4.086a.25.25 0 1 0 0 .499z"/><path d="M8.5 6.08c.69.002 1.249.56 1.25 1.248a.25.25 0 0 0 .5 0A1.75 1.75 0 0 0 8.5 5.582a.25.25 0 1 0 0 .499z"/></g></svg>